<?xml version="1.0" standalone="no"?>
<!DOCTYPE svg PUBLIC "-//W3C//DTD SVG 20010904//EN"
 "http://www.w3.org/TR/2001/REC-SVG-20010904/DTD/svg10.dtd">
<svg version="1.0" xmlns="http://www.w3.org/2000/svg"
 width="32" height="32" viewBox="0 0 512 512"
 preserveAspectRatio="xMidYMid meet">

<g transform="translate(0.000000,512.000000) scale(0.100000,-0.100000)"
fill="#1e40af" stroke="none">
<path d="M1744 5035 c-3 -8 -367 -1132 -808 -2497 l-802 -2483 615 -3 c338 -1
615 -1 617 0 1 2 87 292 190 646 l189 642 757 0 757 0 45 -142 c25 -79 117
-368 204 -643 l159 -500 642 -3 c609 -2 642 -1 636 15 -3 10 -371 1134 -819
2498 l-813 2480 -782 3 c-683 2 -782 0 -787 -13z m808 -1055 c98 -375 160
-589 352 -1205 l183 -590 -580 -3 c-319 -1 -582 0 -584 2 -3 3 67 249 156 548
88 299 171 584 185 633 22 77 206 830 206 842 0 3 5 3 11 1 7 -2 38 -105 71
-228z"/>
</g>
</svg>
